<svg xmlns="http://www.w3.org/2000/svg" version="1" width="346.667" height="346.667" viewBox="0 0 260.000000 260.000000"><path d="M33.2 87.7l.3 29.8 20.2.1 20.1.1.4-4.1c.1-2.3.2-5.3 0-6.7l-.3-2.7H62.7c-6.2 0-11.8-.1-12.4-.1-.9-.1-1.3-1.8-1.3-5.1v-5h21v-6c0-5-.3-6-1.7-6.1-1 0-5.7-.1-10.5-.1l-8.8-.1V71.1l12.2-.3 12.2-.3v-6l.1-6-20.3-.3L33 58l.2 29.7z"/><path d="M81.2 105.1l.2 47.2-2.8 2.3c-2.8 2.5-7.4 3.1-10.5 1.4-1.6-.8-2.1-.2-4 4.7-1.4 3.6-1.8 6-1.2 6.6.5.5 3.2 1.5 6 2.3 8.4 2.1 16 .2 22-5.6s6.3-8.2 6.3-42.8c0-16.7.3-30.2.8-30 .5.2 6.3 4.7 13 10.1l12.1 9.9-4.3 2.7c-9.5 6-14.1 14.6-14.1 26.1 0 15 9 26 23.9 29.6 22.9 5.3 43.1-13.6 38.4-36.1-1.4-6.8-4.3-11.8-9.4-16.3-5.1-4.5-8.8-6.2-16.4-7.6l-6.6-1.2V58h-15.5l-.3 15.4-.3 15.3-16-13.4c-8.8-7.4-17.2-14.4-18.7-15.4l-2.7-2 .1 47.2zm63.4 21c6.4 3.9 8.7 13.8 5.1 21.1-7.6 14.9-28.8 9.8-29-7-.1-13.1 13-20.9 23.9-14.1zM164.5 111c-.2.3 2.2 4.8 5.2 10s6.5 11.3 7.7 13.5c8.9 15.8 8.5 14.6 8.4 22.5 0 4.1.1 8.9.1 10.5l.1 3.1 7.7-.1h7.8l.1-11 .1-11 10.7-18.4c5.9-10.1 10.5-18.5 10.3-18.7-.4-.5-16.7-.7-17.1-.3-.2.2-2.7 5.6-5.6 11.9-2.9 6.3-5.5 11.8-5.9 12.2-.4.5-3.3-4.8-6.5-11.6l-5.8-12.5-8.5-.3c-4.7-.2-8.6-.1-8.8.2zM217.5 153c-3.2 1.2-4.8 3.8-4.8 7.7 0 4.6 4.1 8.6 8.1 7.9 1.5-.2 3-.5 3.4-.5 1.9-.2 4.8-4.8 4.8-7.6 0-5.4-6.4-9.6-11.5-7.5zm8.8 4.1c3.2 4.4.1 9.9-5.5 9.9-6 0-8.8-5.7-5.2-10.8 2.2-3.2 7.9-2.7 10.7.9z"/><path d="M216.6 157.2c-2.1 2.9-2 5.1.2 7.1 2.9 2.7 6.9 2.2 8.6-1.1 3.1-6-5-11.5-8.8-6zm6.8.4c.9.8 1.6 2.2 1.6 2.9 0 1.7-2.7 4.5-4.4 4.5-3.5 0-4.9-6.1-1.8-7.9 2.3-1.4 2.8-1.4 4.6.5z"/><path d="M219.7 158.1c-2 1.2-2.3 4.5-.4 5.2 1.7.6 4.7-1.1 4.7-2.7 0-2.2-2.3-3.6-4.3-2.5zm2.8 1.9c.3.6-.1 1.3-1 1.6-1.9.8-3 0-2-1.5.8-1.4 2.2-1.4 3-.1zM81.6 181.8c-.3.4-.5 5.3-.5 10.8v10l3.9.2c2.2.2 5.8-.2 8-.8 9-2.4 10.7-14.9 2.7-19.2-2.5-1.3-13.4-2.1-14.1-1zm12.2 7c2.6 3.4.6 7.6-4 8.8-2.8.6-2.8.6-2.8-4.8 0-3 .3-5.8.7-6.1 1-1 4.6.2 6.1 2.1zM103.8 187.9c-.2 3.6-.2 8.5 0 10.8.3 4 .5 4.3 3.2 4.3h2.9l-.1-10.9-.1-11-2.8.1c-2.7.1-2.8.3-3.1 6.7zM117.4 182.8c-4.5 3.8-5.7 9.8-3 15.1 2.8 5.3 12 6.9 17 3 2.3-1.8 2.7-2.8 2.4-6.2l-.3-4.2h-4.7c-3.3-.1-4.8.3-4.8 1.2 0 .7-.1 1.6-.2 2-.2.3.7.7 1.9.8 2.8.2 3.7 1 2.8 2.4-1 1.7-6 1.3-7.8-.7-4.3-4.7.4-11.7 6.3-9.5 2.3.9 2.9.7 4-1 1-1.7 1-2.3-.6-3.4-2.6-1.9-10.5-1.6-13 .5zM136.9 184.4c0 2-.1 5.2-.1 7.1 0 11.9 0 11.7 3 11.3l2.7-.3v-21l-2.7-.3c-2.6-.3-2.8-.1-2.9 3.2zM145.9 182c-.5 3-.1 3.5 2.6 4l3 .5.3 8.3.3 8.2h5.9v-8.4c0-8.3 0-8.4 2.6-8.4 3.2 0 4.7-1.3 3.8-3.5-.5-1.4-2.1-1.7-9.5-1.7-5.2 0-9 .4-9 1zM167 191c-2.7 5.5-5 10.4-5 11 0 1.6 4.6 1.2 6-.5 1.4-1.7 8.2-1.4 8.8.4.4 1.1 6.2 1.6 6.2.5 0-1-10-21.4-10.5-21.4-.3 0-2.7 4.5-5.5 10zm7 3.7c0 .7-.7 1.3-1.5 1.3-1.6 0-1.9-.9-.9-3.5.5-1.3.8-1.4 1.5-.3.5.7.9 1.9.9 2.5zM185.9 184.9c0 2.3-.1 5.7-.1 7.6 0 1.9.1 5.1.1 7l.1 3.6 7.7-.3c7-.3 7.6-.5 7.9-2.6.4-2.3-1.1-2.7-7.3-2.2-1.3.1-2.3-.2-2.4-.7-.1-.4-.2-4.2-.3-8.3-.1-7.4-.1-7.5-2.8-7.8-2.6-.3-2.8-.1-2.9 3.7z"/></svg>